<svg width="25" height="25" viewBox="0 0 25 25" fill="none" xmlns="http://www.w3.org/2000/svg">
<path fill-rule="evenodd" clip-rule="evenodd" d="M12.0224 2.55901C6.49383 2.55901 2.00684 6.94268 2.00684 12.344C2.00684 17.7453 6.49383 22.129 12.0224 22.129C17.5511 22.129 22.038 17.7453 22.038 12.344C22.038 6.94268 17.5511 2.55901 12.0224 2.55901ZM7.08475 18.489C7.51542 17.6083 10.1395 16.7472 12.0224 16.7472C13.9054 16.7472 16.5395 17.6083 16.9601 18.489C15.598 19.5458 13.8853 20.172 12.0224 20.172C10.1595 20.172 8.44687 19.5458 7.08475 18.489ZM18.3924 17.0702C16.9601 15.3676 13.4847 14.7902 12.0224 14.7902C10.5602 14.7902 7.08475 15.3676 5.65251 17.0702C4.63092 15.759 4.00996 14.1249 4.00996 12.344C4.00996 8.02882 7.60556 4.516 12.0224 4.516C16.4393 4.516 20.0349 8.02882 20.0349 12.344C20.0349 14.1249 19.414 15.759 18.3924 17.0702ZM12.0224 6.473C10.0794 6.473 8.51698 7.99946 8.51698 9.89775C8.51698 11.796 10.0794 13.3225 12.0224 13.3225C13.9655 13.3225 15.5279 11.796 15.5279 9.89775C15.5279 7.99946 13.9655 6.473 12.0224 6.473ZM12.0224 11.3655C11.1911 11.3655 10.5201 10.7099 10.5201 9.89775C10.5201 9.0856 11.1911 8.43 12.0224 8.43C12.8537 8.43 13.5248 9.0856 13.5248 9.89775C13.5248 10.7099 12.8537 11.3655 12.0224 11.3655Z" fill="#354147"/>
<mask id="mask0_8313_1293" style="mask-type:luminance" maskUnits="userSpaceOnUse" x="2" y="2" width="21" height="21">
<path fill-rule="evenodd" clip-rule="evenodd" d="M12.0224 2.55901C6.49383 2.55901 2.00684 6.94268 2.00684 12.344C2.00684 17.7453 6.49383 22.129 12.0224 22.129C17.5511 22.129 22.038 17.7453 22.038 12.344C22.038 6.94268 17.5511 2.55901 12.0224 2.55901ZM7.08475 18.489C7.51542 17.6083 10.1395 16.7472 12.0224 16.7472C13.9054 16.7472 16.5395 17.6083 16.9601 18.489C15.598 19.5458 13.8853 20.172 12.0224 20.172C10.1595 20.172 8.44687 19.5458 7.08475 18.489ZM18.3924 17.0702C16.9601 15.3676 13.4847 14.7902 12.0224 14.7902C10.5602 14.7902 7.08475 15.3676 5.65251 17.0702C4.63092 15.759 4.00996 14.1249 4.00996 12.344C4.00996 8.02882 7.60556 4.516 12.0224 4.516C16.4393 4.516 20.0349 8.02882 20.0349 12.344C20.0349 14.1249 19.414 15.759 18.3924 17.0702ZM12.0224 6.473C10.0794 6.473 8.51698 7.99946 8.51698 9.89775C8.51698 11.796 10.0794 13.3225 12.0224 13.3225C13.9655 13.3225 15.5279 11.796 15.5279 9.89775C15.5279 7.99946 13.9655 6.473 12.0224 6.473ZM12.0224 11.3655C11.1911 11.3655 10.5201 10.7099 10.5201 9.89775C10.5201 9.0856 11.1911 8.43 12.0224 8.43C12.8537 8.43 13.5248 9.0856 13.5248 9.89775C13.5248 10.7099 12.8537 11.3655 12.0224 11.3655Z" fill="white"/>
</mask>
<g mask="url(#mask0_8313_1293)">
</g>
</svg>
